{"glyphs":{"1":{"ha":376,"x_min":44,"x_max":417,"o":"m 136 649 l 136 704 q 381 881 271 822 q 417 775 417 824 q 406 712 417 747 q 329 543 394 676 q 207 249 254 388 q 165 85 160 110 q 175 24 175 40 q 164 3 175 6 q 92 33 139 3 q 44 119 44 64 q 116 385 44 208 q 297 733 188 561 q 136 649 221 703 z "},"2":{"ha":608,"x_min":7,"x_max":676,"o":"m 211 596 q 310 588 278 594 q 343 563 343 581 q 328 549 343 554 q 241 528 314 543 q 156 514 168 514 q 133 547 133 514 q 145 621 133 576 q 177 706 157 665 q 222 766 197 746 q 313 808 246 786 q 451 842 379 829 q 572 856 524 856 q 618 849 604 856 q 654 788 632 843 q 676 675 676 732 q 642 554 676 604 q 551 464 608 504 q 378 351 494 424 q 75 138 93 175 q 253 165 140 143 q 449 206 367 186 q 532 226 531 226 q 544 210 544 226 q 508 112 544 167 q 380 29 472 57 q 139 1 288 1 q 68 11 96 1 q 24 72 40 21 q 7 140 7 124 q 40 222 7 172 q 135 329 72 272 q 279 433 197 386 l 424 517 q 504 564 488 554 q 551 601 521 574 q 595 650 581 628 q 610 688 610 672 q 591 718 610 708 q 551 728 572 728 q 383 692 483 728 q 211 596 283 656 z "},"3":{"ha":708,"x_min":-33,"x_max":758,"o":"m 217 621 q 179 685 179 639 q 282 801 179 758 q 539 844 385 844 q 758 686 758 844 q 747 623 758 650 q 714 574 736 596 q 669 539 692 553 q 559 501 646 525 q 314 444 472 478 q 551 383 496 428 q 607 275 607 338 q 553 143 607 214 q 385 28 500 72 q 160 -15 271 -15 q 18 14 69 -15 q -33 86 -33 43 q 1 165 -33 122 q 60 208 35 208 q 69 199 69 208 q 63 183 69 192 q 56 168 56 175 q 88 140 56 151 q 174 129 119 129 q 411 183 299 129 q 524 292 524 238 q 465 351 524 333 q 303 368 407 368 q 165 354 219 368 q 156 375 156 354 q 172 445 156 406 q 208 494 188 485 q 299 515 228 504 q 595 590 506 547 q 685 676 685 632 q 651 716 685 701 q 554 731 617 731 q 376 715 451 731 q 301 682 301 699 q 309 667 301 674 q 346 651 317 661 q 354 647 350 651 q 358 636 358 642 q 217 621 358 619 z "},"4":{"ha":593,"x_min":26,"x_max":692,"o":"m 572 236 l 429 206 q 403 89 408 149 q 421 54 421 74 q 373 7 421 40 q 308 -26 325 -26 q 276 22 276 -26 q 297 183 276 104 q 143 172 188 172 q 83 182 107 172 q 42 238 58 192 q 26 307 26 285 q 83 440 26 354 q 246 610 140 525 q 490 771 351 696 q 650 846 628 846 q 683 808 683 846 q 669 769 683 801 q 692 731 692 750 q 681 678 692 703 q 617 574 669 654 q 488 354 521 429 q 606 372 590 372 q 636 349 636 372 q 572 236 636 317 m 356 332 q 453 506 408 440 q 585 672 499 572 q 642 749 642 738 q 626 761 642 761 q 401 624 604 761 q 118 311 199 486 q 356 332 250 319 z "},"5":{"ha":593,"x_min":-57,"x_max":692,"o":"m 338 821 q 517 815 442 815 q 692 819 608 815 q 597 668 631 690 q 465 663 569 663 q 314 664 338 663 q 192 503 239 600 q 382 546 322 546 q 509 500 463 546 q 556 364 556 454 q 406 91 556 203 q 67 -21 256 -21 q -31 1 -6 -21 q -57 76 -57 24 q -37 140 -57 113 q 35 190 -17 167 q 142 214 88 214 q 150 210 150 214 q 139 200 150 204 q 76 172 100 186 q 53 150 53 158 q 110 132 53 132 q 297 180 200 132 q 445 282 393 228 q 497 365 497 336 q 472 408 497 392 q 399 424 446 424 q 251 400 335 424 q 171 382 190 382 q 135 414 154 382 q 106 496 115 446 q 338 821 147 643 z "},"6":{"ha":579,"x_min":14,"x_max":653,"o":"m 508 813 l 579 808 q 638 803 624 806 q 653 792 653 800 q 590 749 653 782 q 378 611 475 689 q 204 438 278 532 q 165 385 165 389 l 167 385 q 183 400 169 385 q 301 497 249 467 q 408 526 353 526 q 512 488 474 526 q 550 378 550 449 q 497 208 550 304 q 361 47 443 111 q 208 -17 279 -17 q 72 62 131 -17 q 14 233 14 140 q 149 535 14 367 q 508 813 285 704 m 128 171 q 139 110 128 128 q 176 93 150 93 q 285 147 215 93 q 399 269 354 201 q 443 399 443 338 q 400 451 443 451 q 318 417 372 451 q 210 331 264 383 q 142 244 157 279 q 128 171 128 208 z "},"7":{"ha":607,"x_min":101,"x_max":721,"o":"m 326 93 l 336 81 q 157 -14 215 -14 q 101 53 101 -14 q 228 332 101 144 q 586 696 356 519 q 419 710 494 710 q 178 651 265 710 q 158 640 160 640 q 143 647 151 640 q 135 664 135 654 q 162 716 135 674 q 212 791 189 758 q 256 832 235 824 q 362 848 276 840 q 536 856 447 856 q 638 852 590 856 q 693 849 686 849 q 721 735 721 783 q 717 710 721 719 q 693 682 714 700 q 471 453 567 572 q 330 243 375 335 q 285 103 285 151 q 297 85 285 85 q 326 93 306 85 z "},"8":{"ha":622,"x_min":69,"x_max":775,"o":"m 422 450 q 476 340 463 375 q 490 263 490 304 q 414 82 490 163 q 226 1 338 1 q 115 31 160 1 q 69 106 69 60 q 126 234 69 154 q 301 435 183 314 q 201 647 201 551 q 271 813 201 753 q 454 890 340 872 q 653 907 568 907 q 747 900 719 907 q 775 872 775 893 q 750 811 775 856 q 711 756 725 767 q 663 746 697 746 q 675 713 675 725 q 658 678 675 697 q 585 608 640 658 q 422 450 485 518 m 382 508 q 599 700 563 667 q 635 739 635 733 q 546 758 635 758 q 376 727 436 758 q 315 638 315 696 q 382 508 315 588 m 346 374 q 211 218 268 293 q 154 121 154 143 q 231 76 154 76 q 338 126 290 76 q 386 247 386 176 q 346 374 386 310 z "},"9":{"ha":636,"x_min":107,"x_max":707,"o":"m 539 496 q 359 361 425 400 q 250 322 293 322 q 159 393 211 322 q 107 535 107 464 q 188 703 107 615 q 385 856 268 792 q 571 921 503 921 q 657 879 615 921 q 699 804 699 838 q 639 725 699 776 q 561 674 579 674 q 556 676 556 674 q 596 726 556 686 q 618 763 618 749 q 608 771 618 771 q 517 738 593 771 q 365 647 440 706 q 260 535 290 589 q 229 449 229 481 q 265 415 229 415 q 384 458 301 415 q 514 549 467 501 q 613 642 583 618 q 668 665 643 665 q 697 655 686 665 q 707 635 707 644 q 547 370 707 629 q 326 50 386 111 q 226 -11 265 -11 q 207 15 207 -11 q 237 96 207 44 q 303 143 267 147 q 539 496 432 325 z "},"板":{"ha":1389,"x_min":54,"x_max":1294,"o":"m 1019 188 q 1184 86 1139 125 q 1262 -15 1229 47 q 1294 -98 1294 -78 q 1278 -118 1294 -118 q 1263 -112 1272 -118 l 1171 -54 q 956 99 1088 0 q 738 1 844 1 q 638 18 692 1 q 612 -12 624 -12 q 590 -1 600 -12 q 574 51 581 11 q 536 131 568 90 q 499 228 504 171 q 481 153 481 214 q 485 10 481 92 l 493 -126 q 478 -153 493 -153 q 465 -148 472 -153 q 438 -112 458 -143 q 410 -54 418 -81 q 403 8 403 -28 q 406 97 403 44 q 349 46 375 46 q 307 100 324 46 q 290 176 290 154 q 300 211 290 199 q 354 254 310 224 q 408 331 394 293 q 422 436 421 369 q 225 321 282 321 q 176 340 203 321 q 120 390 149 358 q 73 456 92 422 q 54 497 54 490 q 59 504 54 504 q 75 494 64 504 q 98 479 86 485 q 138 474 110 474 q 226 506 167 474 q 440 644 285 538 q 449 763 449 728 q 444 814 449 797 q 422 839 439 831 q 404 871 404 847 q 413 896 404 886 q 436 906 421 906 q 524 855 469 906 q 578 775 578 804 q 561 704 578 758 q 610 685 601 693 q 619 654 619 676 q 615 623 619 632 q 576 583 611 614 q 524 531 542 553 q 514 476 514 503 q 533 411 514 450 q 704 671 658 581 q 728 709 718 699 q 792 749 739 719 q 867 795 844 778 q 906 837 890 813 q 956 861 922 861 q 1028 821 989 861 q 1067 736 1067 781 q 1008 688 1067 710 q 869 463 971 674 q 974 529 935 529 q 1051 491 1014 529 q 1088 401 1088 453 q 1065 306 1088 379 q 1019 188 1043 232 m 556 371 q 668 517 599 410 q 738 644 738 625 q 724 663 738 663 q 717 660 721 663 q 659 567 714 658 q 584 434 604 475 q 556 371 564 393 m 696 331 q 750 453 721 394 q 812 567 779 511 q 844 626 844 624 q 832 636 844 636 q 811 629 826 636 q 780 622 796 622 q 747 625 764 622 q 561 321 635 415 q 638 336 603 336 q 696 331 674 336 m 931 235 q 979 431 979 356 q 974 438 979 438 q 956 420 968 438 q 905 377 943 403 q 829 338 867 351 q 785 300 792 325 q 931 235 829 283 m 657 249 q 603 257 638 257 q 529 243 568 257 q 521 214 521 231 q 571 113 521 175 q 657 249 621 176 m 875 150 q 746 219 808 194 q 667 68 719 161 q 875 150 776 58 z "},"测":{"ha":1389,"x_min":175,"x_max":1188,"o":"m 293 944 q 301 913 293 925 q 343 892 310 900 q 442 860 411 876 q 492 807 472 843 q 511 743 511 771 q 476 698 511 701 q 415 669 440 694 q 395 663 408 663 q 345 677 382 663 q 308 701 308 692 q 319 719 308 710 q 357 765 357 753 q 350 783 357 778 q 303 856 333 800 q 274 936 274 911 q 289 1000 274 961 q 308 1039 304 1039 q 310 1033 310 1039 q 301 999 310 1028 q 293 944 293 971 m 974 625 q 1024 813 1004 729 q 1043 912 1043 897 q 1038 931 1043 926 q 1033 944 1033 936 q 1044 960 1033 951 q 1069 968 1056 968 q 1147 916 1110 968 q 1185 824 1185 864 q 1177 763 1185 785 q 1158 639 1169 742 q 1147 486 1147 536 q 1185 54 1147 278 q 1188 -10 1188 42 q 1182 -116 1188 -61 q 1174 -178 1176 -171 q 1165 -185 1171 -185 q 1122 -144 1150 -185 q 1069 -89 1094 -104 q 1022 -39 1046 -72 q 963 34 979 21 q 946 51 946 47 q 953 54 946 54 q 974 47 961 54 q 1082 18 1028 18 q 1102 26 1097 18 q 1107 56 1107 35 l 1092 293 q 1081 575 1081 450 q 1089 767 1081 700 q 1097 853 1097 835 q 1085 883 1097 872 q 1067 894 1072 894 q 1056 867 1061 894 q 1026 742 1044 804 q 1003 642 1007 681 q 1004 574 1000 603 q 1008 530 1008 544 q 1005 507 1008 515 q 999 453 1001 499 q 997 357 996 407 l 997 267 q 986 233 997 233 q 922 299 961 233 q 883 413 883 364 q 888 440 883 428 q 910 542 910 494 q 871 653 910 607 q 863 668 863 663 q 873 674 863 674 q 912 663 883 674 q 974 625 940 653 m 860 721 q 857 697 860 711 q 822 418 829 579 q 812 253 818 306 q 796 183 806 200 q 767 165 786 165 q 741 174 749 165 q 721 222 733 183 q 702 273 708 261 q 696 293 696 285 q 711 301 696 301 q 731 312 726 301 q 739 373 736 322 q 742 533 742 424 q 735 692 742 642 q 710 743 729 743 q 700 740 704 743 q 613 715 667 715 q 574 737 574 715 q 615 800 574 758 q 710 842 656 842 q 808 797 756 842 q 860 721 860 753 m 640 183 q 783 104 751 161 q 815 31 815 47 q 791 14 815 14 q 750 20 767 14 q 701 54 733 26 q 617 121 669 82 q 546 38 579 38 q 502 55 531 38 q 474 81 474 72 q 485 92 474 89 q 549 168 508 97 q 476 351 476 247 q 482 424 476 371 q 488 512 488 478 q 483 572 488 546 q 478 620 478 599 q 483 655 478 642 q 494 668 489 668 q 500 663 500 668 q 499 653 500 657 q 497 644 497 649 q 516 614 497 628 q 549 568 535 600 q 564 501 564 536 q 553 433 564 467 q 543 309 543 399 q 561 192 543 219 q 603 344 585 246 q 621 505 621 442 q 618 581 621 568 q 610 596 615 594 q 587 597 606 597 q 568 613 568 597 q 582 648 568 629 q 617 667 596 667 q 660 651 638 667 q 690 617 683 635 q 697 553 697 600 q 684 403 697 506 q 640 183 671 300 m 424 428 q 419 411 424 422 q 403 344 403 358 q 408 328 403 331 q 414 314 414 326 q 393 190 414 276 q 372 80 372 103 q 374 43 372 57 q 376 15 376 29 q 358 -24 376 -24 q 302 24 339 -24 q 265 146 265 72 l 271 364 q 267 403 271 389 q 235 450 263 417 q 191 520 207 483 q 175 583 175 557 q 185 624 175 610 q 205 638 194 638 q 217 623 215 638 q 223 600 219 608 q 238 585 226 592 q 298 522 268 565 q 342 452 328 479 q 356 392 356 425 q 306 189 356 336 q 299 158 299 168 q 303 149 299 149 q 321 176 307 149 q 342 224 335 203 q 421 433 408 433 q 424 428 424 433 z "},"层":{"ha":1389,"x_min":117,"x_max":1142,"o":"m 622 861 q 772 881 725 872 q 840 899 819 889 q 877 929 860 910 q 918 949 894 949 q 1006 903 956 949 q 1057 832 1057 858 q 1035 784 1057 821 q 965 692 1013 747 q 1000 672 993 681 q 1007 643 1007 664 q 997 615 1007 622 q 936 605 986 607 q 817 590 886 603 q 722 567 749 578 q 558 504 599 511 q 485 272 501 353 q 422 106 469 192 q 310 -58 375 19 q 217 -156 246 -135 q 167 -178 188 -178 q 132 -172 147 -178 q 117 -153 117 -167 q 139 -132 117 -139 q 167 -115 151 -129 q 217 -60 183 -100 q 301 59 250 -21 q 374 193 351 139 l 457 458 q 543 737 529 688 q 557 819 557 786 q 545 849 557 843 q 533 866 533 856 q 542 879 533 876 q 575 882 551 882 q 622 861 599 882 m 807 686 q 881 789 881 767 q 866 797 881 797 q 810 778 851 797 q 740 760 769 760 q 644 810 688 760 q 647 789 647 800 q 633 722 647 751 q 593 617 618 692 q 715 648 678 631 q 807 686 751 665 m 861 542 q 935 519 882 542 q 988 457 988 497 q 977 431 988 442 q 958 417 967 419 q 923 415 949 415 q 843 392 897 415 q 769 349 789 368 q 736 324 750 331 q 680 310 722 318 q 627 303 638 303 q 617 306 617 303 q 678 351 617 313 q 694 371 694 363 q 632 432 694 386 q 622 447 622 439 q 731 493 622 478 q 801 509 767 499 q 843 531 836 519 q 861 542 850 542 m 938 108 q 913 175 913 163 q 925 188 913 188 q 1003 166 942 188 q 1103 102 1064 144 q 1142 14 1142 60 q 1120 -78 1142 -32 q 1083 -124 1099 -124 q 1049 -95 1068 -124 q 999 -6 1029 -67 q 943 8 969 8 q 794 -21 893 8 q 671 -86 694 -50 q 638 -106 658 -106 q 580 -62 608 -106 q 551 18 551 -18 q 566 74 551 54 q 606 93 581 93 q 622 91 611 93 q 642 89 633 89 q 690 112 663 89 q 806 224 718 135 q 617 142 675 172 q 538 113 560 113 q 497 138 515 113 q 479 191 479 163 q 496 242 479 219 q 532 264 513 264 q 543 256 542 264 q 566 247 544 247 q 671 266 588 247 q 858 320 754 285 q 976 371 961 356 q 1008 385 990 385 q 1067 369 1025 385 q 1108 319 1108 353 q 1079 275 1108 286 q 841 148 928 217 q 754 69 754 79 q 768 58 754 58 q 829 72 782 58 q 938 108 876 85 z "},"顶":{"ha":1389,"x_min":143,"x_max":1225,"o":"m 1022 99 q 1151 60 1110 88 q 1209 -8 1193 32 q 1225 -68 1225 -47 q 1186 -106 1225 -106 q 1097 -68 1154 -106 q 982 32 1040 -31 q 924 101 924 94 q 933 107 924 107 q 957 106 943 107 q 914 197 947 182 q 794 8 878 79 q 642 -64 711 -64 q 602 -57 621 -64 q 583 -40 583 -50 q 599 -25 583 -31 q 744 85 682 3 q 831 262 807 167 q 856 383 856 357 q 847 414 856 408 q 818 421 839 419 q 789 338 800 399 q 776 218 778 276 q 753 160 775 160 q 713 203 733 160 q 692 308 692 246 q 701 428 692 369 q 752 584 711 486 q 819 715 793 682 q 779 707 801 707 q 678 752 722 707 q 635 818 635 797 q 646 835 635 828 q 691 851 657 842 q 827 901 725 861 q 969 960 929 940 q 1022 972 996 972 q 1092 936 1049 972 q 1136 874 1136 900 q 1085 822 1136 849 q 949 749 983 771 q 894 686 914 726 q 872 624 874 646 q 994 721 953 721 q 1046 693 1010 721 q 1096 644 1082 665 q 1110 597 1110 624 q 1121 495 1111 571 q 1131 359 1131 419 q 1116 232 1131 299 q 1022 99 1101 165 m 925 231 q 983 213 969 213 q 1002 221 996 213 q 1015 303 1008 229 q 1021 438 1021 376 q 1010 550 1021 499 q 982 601 999 601 q 967 592 976 601 l 886 506 q 982 450 982 503 q 978 426 982 439 q 925 231 953 354 m 342 543 q 306 529 321 529 q 276 539 290 529 q 221 590 261 549 q 162 657 181 632 q 143 688 143 682 q 151 694 143 694 q 178 683 158 694 q 218 672 197 672 q 297 706 239 672 q 463 795 419 775 q 544 815 506 815 q 640 792 622 815 q 658 747 658 769 q 578 672 658 696 q 446 613 510 653 q 467 560 449 569 q 510 508 496 547 q 524 383 524 469 q 512 240 524 297 q 476 134 500 183 q 442 72 453 85 q 417 60 432 60 q 363 90 403 60 l 260 165 q 199 219 199 211 q 215 224 199 226 q 340 208 300 208 q 393 240 379 208 q 407 338 407 271 q 390 461 407 406 q 342 543 372 517 z "},"含":{"ha":1389,"x_min":136,"x_max":1365,"o":"m 694 865 q 797 834 751 860 q 933 719 842 808 q 1140 543 1024 629 q 1294 442 1256 457 q 1342 419 1333 426 q 1358 390 1351 413 q 1365 352 1365 367 q 1335 338 1365 338 q 1227 345 1306 338 q 1122 374 1149 353 q 1006 491 1094 394 q 866 654 917 588 q 755 754 815 721 q 638 783 694 788 l 579 697 q 592 678 575 678 q 638 692 608 678 q 680 699 653 699 q 742 679 707 699 q 787 647 778 660 q 796 608 796 633 q 784 572 796 583 q 754 560 772 560 l 736 561 q 697 551 719 561 q 660 527 675 542 q 597 485 644 513 q 539 457 550 458 q 489 440 503 454 q 475 417 475 425 q 494 400 475 400 q 510 404 503 400 q 676 458 606 453 q 713 471 703 461 q 728 499 724 481 q 779 518 732 518 q 856 491 826 518 q 886 436 886 464 q 866 403 886 408 q 790 326 846 397 q 722 210 735 256 q 783 248 764 239 q 824 257 803 257 q 911 224 858 257 q 964 143 964 190 q 950 110 964 119 q 897 41 936 100 q 849 -43 858 -18 q 865 -69 865 -56 q 856 -95 865 -82 q 835 -108 846 -108 q 819 -107 825 -108 q 708 -93 756 -93 q 645 -106 683 -93 q 598 -131 607 -119 q 576 -143 589 -143 q 538 -118 563 -143 q 495 -38 514 -93 q 474 54 476 17 q 460 121 472 92 q 438 166 449 150 q 426 194 426 182 q 436 206 426 206 q 488 173 446 206 q 549 107 531 140 q 642 181 581 147 q 558 197 592 192 q 524 208 524 201 q 555 219 524 215 q 631 266 586 222 q 690 364 676 310 q 590 301 614 311 q 524 290 567 290 q 466 300 481 290 q 440 345 451 310 q 429 407 429 381 q 438 444 429 433 q 485 493 447 456 q 583 565 522 531 q 590 579 590 569 q 550 651 590 608 q 398 403 461 496 q 267 260 335 311 q 167 210 199 210 q 136 231 136 210 q 163 267 136 251 q 288 420 190 282 q 456 692 386 558 q 633 965 525 826 q 615 1003 615 996 q 620 1010 615 1010 q 636 1006 625 1010 q 655 1003 647 1003 q 670 1013 663 1003 q 683 1022 678 1022 q 733 997 701 1022 q 765 943 765 972 q 758 928 765 932 q 694 865 733 908 m 731 8 q 772 74 751 35 q 793 125 793 113 q 785 138 793 138 q 768 133 778 138 q 576 54 688 96 q 590 -22 578 -11 q 661 -14 618 -22 q 731 8 704 -6 z "},"煤":{"ha":1389,"x_min":154,"x_max":1190,"o":"m 1050 781 q 1154 756 1118 785 q 1190 705 1190 728 q 1165 682 1190 682 q 1142 686 1156 682 q 1040 701 1093 701 q 982 426 1011 596 q 986 399 986 410 q 978 383 986 388 q 949 378 971 378 q 893 354 928 378 q 901 318 897 339 q 1053 334 1033 326 q 1086 342 1074 342 q 1151 304 1125 342 q 1178 239 1178 267 q 1157 222 1178 222 q 1085 244 1136 222 q 1017 254 1063 254 q 911 240 972 254 q 915 111 910 172 q 921 46 921 50 q 901 -69 921 -3 q 870 -159 882 -136 q 849 -182 858 -182 q 801 -130 836 -182 q 688 24 767 -78 q 649 -56 671 -18 q 611 -94 626 -94 q 586 -53 596 -94 q 576 8 576 -11 q 597 72 576 46 q 624 146 617 99 q 569 133 596 133 q 527 145 543 133 q 511 181 511 157 q 522 220 511 206 q 567 242 533 235 q 649 275 600 250 q 735 328 699 300 q 721 326 728 326 q 671 381 671 326 q 678 420 671 400 q 686 465 686 440 q 674 589 686 489 q 624 603 650 590 q 575 557 592 557 q 543 565 558 557 q 451 596 483 596 l 425 436 q 526 396 490 429 q 563 308 563 363 q 539 253 563 253 q 503 264 529 253 q 413 351 478 275 q 402 217 404 286 q 376 113 400 149 q 289 38 351 76 q 194 -1 226 -1 q 154 60 154 -1 q 164 79 154 79 q 183 72 174 79 q 199 65 192 65 q 284 156 235 65 q 374 536 333 246 q 329 474 332 506 q 293 327 318 372 q 232 282 268 282 q 176 323 196 282 q 156 398 156 364 q 169 437 156 432 q 194 474 182 442 q 207 531 207 506 q 201 550 207 542 q 196 568 196 558 q 210 578 196 578 q 251 558 225 578 q 304 501 276 538 q 379 571 308 501 q 406 751 397 654 q 415 871 415 847 q 400 894 415 894 q 388 891 394 894 q 373 888 381 888 q 365 900 365 888 q 378 923 365 913 q 420 933 390 933 q 477 914 450 933 q 504 865 504 894 q 500 844 504 856 q 469 713 472 765 q 607 675 529 685 q 679 694 647 682 q 698 790 685 744 q 716 846 711 836 q 726 856 721 856 q 783 731 749 856 q 928 763 835 746 q 933 851 933 817 q 901 943 933 931 q 882 967 882 951 q 895 995 882 983 q 929 1007 908 1007 q 988 983 950 1007 q 1039 935 1026 958 q 1051 870 1051 911 q 1050 781 1051 829 m 457 633 q 500 658 500 647 q 491 680 500 668 q 468 700 482 692 q 457 633 467 681 m 922 690 q 782 631 851 682 q 774 585 778 618 q 910 614 868 614 q 922 690 919 661 m 899 544 q 767 478 825 517 q 781 440 764 450 q 888 464 839 463 q 899 544 892 510 m 796 303 q 758 331 788 326 q 733 289 736 306 q 796 303 769 294 m 814 219 q 665 161 733 192 q 683 104 678 140 q 763 151 743 151 q 774 146 774 151 q 760 135 774 140 q 696 40 733 122 q 807 8 757 7 q 814 219 814 103 m 965 138 q 1046 122 989 138 q 1122 64 1103 106 q 1142 -29 1142 22 q 1130 -67 1142 -53 q 1102 -82 1118 -82 q 1076 -69 1086 -82 l 1007 29 q 949 126 949 114 q 965 138 949 138 z "},"泥":{"ha":1389,"x_min":210,"x_max":1218,"o":"m 847 697 q 883 742 868 717 q 897 778 897 767 q 891 789 897 789 q 879 785 885 789 q 796 744 826 751 q 661 738 765 738 q 630 722 650 738 q 558 658 610 707 q 544 651 550 651 q 538 657 538 651 q 545 674 538 663 q 623 753 553 685 q 722 838 693 822 q 834 875 751 854 q 942 896 917 896 q 999 849 967 896 q 1032 767 1032 801 q 965 665 1032 706 q 947 643 947 654 q 952 626 947 632 q 957 614 957 621 q 924 584 957 592 q 788 531 890 576 q 752 522 767 522 q 696 529 738 522 q 667 428 689 457 q 615 306 646 399 q 551 136 583 213 q 486 -3 519 60 q 444 -76 453 -65 q 424 -86 435 -86 q 406 -58 413 -86 q 399 -2 399 -31 q 405 42 399 26 q 428 73 411 57 q 468 140 444 89 q 507 245 492 190 q 564 438 522 300 q 614 600 606 576 q 644 649 622 624 q 692 685 665 674 q 737 694 718 697 q 785 690 756 690 q 847 697 815 690 m 686 603 q 706 630 696 622 q 733 638 715 638 q 767 644 751 638 q 782 658 782 651 q 748 665 782 665 q 699 656 714 665 q 683 631 683 647 q 686 603 683 614 m 390 681 q 331 772 353 713 q 308 849 308 832 q 331 865 308 865 q 416 838 353 865 q 500 756 479 810 q 521 661 521 701 q 485 624 521 635 q 440 614 449 614 q 422 624 431 614 q 405 638 414 633 q 385 642 396 643 l 367 642 q 356 649 356 642 q 390 681 356 661 m 278 115 q 313 192 296 132 q 363 342 331 253 q 402 444 394 432 q 415 456 410 456 q 419 449 419 456 q 415 433 419 443 q 410 382 406 408 q 411 353 411 368 q 399 312 411 339 q 363 149 388 285 q 338 -28 338 14 q 313 -71 338 -71 q 242 -18 274 -71 q 210 101 210 35 q 225 353 210 217 q 226 417 226 372 q 222 476 226 463 q 217 506 217 490 q 223 546 217 522 q 240 569 229 569 q 285 499 251 569 q 318 376 318 428 q 299 263 318 324 q 278 115 281 201 m 765 196 q 731 113 731 142 q 799 62 731 69 q 916 54 868 54 q 1024 67 964 54 q 1098 121 1083 79 q 1119 235 1113 163 q 1135 267 1122 267 q 1158 218 1149 267 q 1181 118 1167 169 q 1206 54 1194 67 q 1218 21 1218 42 q 1157 -37 1218 -24 q 974 -50 1096 -50 q 735 -18 813 -50 q 657 118 657 14 q 672 213 657 161 q 651 278 651 260 q 658 285 651 285 q 683 260 664 285 q 706 323 706 301 q 683 344 706 344 l 661 342 q 650 356 650 342 q 676 394 650 369 q 751 419 701 419 q 778 408 767 419 q 807 361 789 397 q 855 397 821 358 q 889 444 889 436 q 878 456 889 453 q 853 458 868 458 q 833 457 839 457 q 813 465 813 457 q 825 482 813 472 q 869 494 838 492 q 915 501 900 497 q 935 506 929 506 q 1002 477 972 506 q 1032 419 1032 449 q 997 378 1032 389 q 946 344 969 368 q 765 196 861 260 z "},"砂":{"ha":1389,"x_min":32,"x_max":1304,"o":"m 1244 621 q 1288 570 1271 597 q 1304 528 1304 543 q 1249 500 1304 500 q 1188 506 1224 500 q 1029 263 1156 442 q 784 -16 903 85 q 583 -156 665 -117 q 483 -196 501 -196 q 478 -192 478 -196 q 493 -175 478 -187 q 875 231 686 -22 q 728 418 815 300 q 683 332 700 376 q 658 301 672 301 q 613 365 644 301 q 565 253 565 282 q 580 209 565 225 q 594 179 594 193 q 567 157 594 157 q 486 131 539 157 q 389 117 461 118 q 401 55 401 75 q 391 35 401 35 q 348 74 381 35 q 274 236 315 114 q 201 131 240 181 q 133 53 163 81 q 95 22 104 26 q 78 18 86 18 q 44 47 56 18 q 32 90 32 76 q 36 103 32 103 q 47 98 40 103 q 61 93 54 93 q 113 150 78 93 l 236 356 q 216 403 228 390 q 204 421 204 417 q 210 425 204 425 q 265 404 224 425 q 346 538 321 501 q 371 588 371 575 q 361 604 371 600 q 294 671 339 613 q 249 740 249 729 q 261 750 249 750 q 282 746 267 750 q 319 742 297 742 q 401 756 340 742 q 481 788 463 769 q 506 796 489 796 q 568 769 522 796 q 614 713 614 743 q 597 686 614 694 q 397 425 572 674 q 453 450 428 435 q 488 477 479 465 q 524 489 497 489 q 613 454 575 489 q 654 554 654 519 q 635 614 654 589 q 629 633 629 622 q 635 650 629 643 q 650 657 640 657 q 703 634 681 657 q 746 517 726 611 q 865 567 824 558 q 866 713 867 649 q 860 797 865 776 q 834 831 854 818 q 783 890 814 843 q 753 946 753 938 q 761 954 753 954 q 847 942 796 954 q 934 909 899 929 q 984 869 969 889 q 999 831 999 850 q 993 793 999 811 q 965 592 975 732 q 1131 649 1026 599 q 1174 749 1174 732 q 1149 769 1174 765 q 1125 780 1125 774 q 1135 793 1125 786 q 1163 800 1146 800 q 1244 764 1207 800 q 1282 697 1282 728 q 1244 621 1282 667 m 865 550 q 781 506 807 529 q 735 432 754 482 q 849 361 828 361 q 863 394 863 361 l 865 550 m 1067 528 q 963 549 999 547 q 951 339 958 494 q 1067 528 1014 426 m 374 186 q 427 216 410 201 q 459 275 444 231 q 474 333 474 319 q 458 346 474 346 q 349 353 396 346 l 338 335 q 362 253 360 289 q 374 186 364 218 z "},"上":{"ha":1389,"x_min":215,"x_max":1246,"o":"m 753 213 q 1042 238 993 238 q 1175 192 1104 238 q 1246 108 1246 147 q 1169 31 1246 31 q 1086 47 1129 31 q 970 73 1043 64 q 838 82 897 82 q 740 79 778 82 q 665 43 719 43 q 600 63 625 43 q 476 32 550 57 q 363 -14 401 7 q 306 -35 325 -35 q 242 25 268 -35 q 215 116 215 85 q 251 156 215 147 q 310 178 286 164 q 438 272 335 193 q 601 397 540 350 q 560 789 608 699 q 546 838 546 815 q 593 883 546 883 q 726 842 651 883 q 808 707 801 800 q 879 724 857 715 q 919 733 901 733 q 1019 699 971 733 q 1067 614 1067 664 q 1053 576 1067 590 q 1011 559 1040 561 q 899 528 982 557 q 769 464 817 499 q 751 265 751 374 q 753 213 751 238 m 600 357 q 281 149 375 200 q 272 139 272 144 q 281 133 272 133 q 294 135 289 133 q 586 194 414 172 q 600 357 594 261 z "},"试":{"ha":1389,"x_min":107,"x_max":1349,"o":"m 974 604 q 1054 349 1001 482 q 1157 126 1107 215 q 1230 9 1207 36 q 1259 -18 1253 -18 q 1270 -2 1265 -18 q 1283 71 1275 14 q 1290 163 1290 128 q 1299 199 1290 199 q 1306 191 1303 199 q 1319 120 1310 183 q 1329 -12 1328 57 q 1340 -122 1331 -82 q 1349 -169 1349 -161 q 1322 -199 1349 -199 q 1237 -147 1296 -199 q 1109 31 1178 -96 q 886 551 1040 157 q 692 464 804 506 q 696 484 696 475 q 683 494 696 493 q 603 525 642 499 q 564 572 564 551 q 587 590 564 588 q 664 613 610 592 q 836 690 718 633 q 764 858 797 819 q 731 919 746 878 q 717 974 717 961 q 722 988 717 988 q 735 979 726 988 q 780 953 743 971 q 832 932 817 935 q 894 871 865 925 q 942 724 922 817 q 1021 711 992 728 q 1050 673 1050 694 q 974 604 1050 651 m 314 674 q 406 753 361 725 q 450 806 450 782 q 429 854 450 829 q 408 885 408 879 q 415 890 408 890 q 513 862 428 890 q 622 808 599 833 q 646 758 646 783 q 628 712 646 733 q 585 690 610 690 q 572 692 578 690 q 497 699 546 699 q 314 674 449 699 m 1064 836 q 1135 824 1090 836 q 1199 785 1179 811 q 1219 741 1219 760 q 1201 707 1219 722 q 1161 692 1183 692 q 1078 743 1121 692 q 1035 815 1035 794 q 1064 836 1035 836 m 785 219 q 875 243 825 240 q 909 255 901 246 q 918 281 917 264 q 929 299 919 299 q 950 268 939 299 q 961 215 961 238 q 900 161 961 171 q 801 122 874 157 q 703 60 728 86 q 647 35 678 35 q 585 51 615 35 q 554 113 554 67 q 563 148 554 133 q 588 163 571 163 q 617 172 604 164 q 650 206 631 181 q 669 236 669 231 q 663 242 669 242 q 646 239 657 242 q 619 236 635 236 q 568 254 588 236 q 467 -4 467 81 l 469 -29 q 433 -65 469 -65 q 363 -5 396 -65 q 331 94 331 56 q 336 229 331 163 l 346 332 q 340 344 346 344 q 322 332 333 344 q 253 303 296 303 q 172 333 210 303 q 120 408 133 363 q 107 469 107 453 q 112 485 107 485 q 126 473 117 485 q 150 461 136 461 q 307 540 182 461 q 389 571 354 571 q 454 534 424 571 q 485 464 485 497 q 465 372 485 431 q 435 246 446 314 q 424 160 424 178 q 429 142 424 142 q 443 157 435 142 q 546 289 460 186 q 544 307 544 299 q 569 343 544 343 q 648 370 593 343 q 724 412 703 397 q 747 438 744 426 q 792 464 754 464 q 840 453 814 464 q 871 425 867 443 q 875 387 875 407 q 869 344 875 367 q 856 315 864 322 q 785 219 806 267 z "},"水":{"ha":1389,"x_min":146,"x_max":1364,"o":"m 832 496 q 994 431 913 451 q 1211 357 1076 410 q 1355 296 1346 304 q 1364 279 1364 288 q 1329 241 1364 260 q 1219 207 1294 222 q 1130 192 1144 192 q 1092 203 1115 192 q 991 262 1068 214 q 824 375 914 310 q 779 398 803 390 q 744 403 756 406 q 713 401 732 401 q 719 206 714 258 q 724 113 724 153 q 715 -10 724 72 q 701 -102 706 -93 q 684 -111 696 -111 q 650 -78 672 -111 q 514 90 585 19 q 476 140 476 128 q 486 153 476 153 q 508 142 496 153 q 546 125 519 132 l 613 110 q 619 135 619 110 l 618 228 q 617 410 615 332 q 550 442 550 428 q 617 499 550 465 q 617 563 614 533 q 485 397 514 453 q 405 270 456 342 q 313 128 354 199 q 271 101 297 101 q 224 164 233 101 q 214 247 214 226 q 217 272 214 267 q 238 285 221 278 q 306 358 265 294 q 346 440 346 422 q 338 446 346 446 q 317 437 331 446 q 267 428 303 428 q 178 454 210 428 q 146 503 146 481 q 165 522 146 517 q 324 569 272 549 q 385 610 376 589 q 419 632 393 632 q 469 623 444 632 q 501 608 494 614 q 518 581 507 601 q 539 536 529 560 q 618 608 556 554 q 630 780 624 725 q 636 849 636 835 q 633 872 636 864 q 608 916 629 881 q 578 966 588 951 q 568 986 568 981 q 583 1001 568 1001 q 611 987 592 1001 q 644 967 631 972 q 676 960 657 961 q 748 931 722 957 q 774 864 774 904 q 755 797 774 838 q 730 710 736 757 q 715 519 724 663 l 732 519 q 889 663 810 574 q 968 801 968 753 q 963 818 968 814 q 946 822 958 822 q 939 830 939 822 q 954 855 939 838 q 1001 872 969 872 q 1047 821 1033 872 q 1060 737 1060 769 q 1038 684 1060 704 q 994 640 1015 664 q 832 496 929 571 z "},"图":{"ha":1389,"x_min":257,"x_max":1142,"o":"m 586 804 q 535 848 554 836 q 515 863 515 860 q 630 927 515 876 q 804 978 744 978 q 904 958 864 978 q 1034 875 996 913 q 1088 776 1072 838 q 1123 522 1104 715 q 1142 217 1142 329 q 1131 48 1142 104 q 1092 -59 1119 -8 q 1019 -137 1064 -110 q 915 -165 975 -165 q 795 -142 854 -165 q 653 -67 736 -118 q 485 -110 607 -110 q 381 -62 436 -110 q 291 59 325 -15 q 257 200 257 133 q 284 421 257 267 q 335 651 311 575 q 360 756 360 728 q 363 785 360 785 q 375 743 367 785 q 397 665 383 701 q 439 531 439 569 q 407 438 439 492 q 357 298 375 383 q 339 151 339 213 q 435 9 339 56 q 607 -31 532 -37 q 492 142 513 88 q 471 206 471 196 q 476 217 471 217 q 492 197 481 217 q 648 21 549 94 q 854 -53 747 -53 q 997 45 961 -53 q 1033 304 1033 143 q 1017 563 1033 393 q 946 808 1000 732 q 842 883 892 883 q 768 871 810 883 q 707 831 726 858 q 763 707 761 783 q 829 624 829 667 q 799 518 829 581 q 863 526 854 518 q 869 529 865 529 q 935 497 890 529 q 981 438 981 464 q 972 401 981 411 q 947 392 963 392 q 922 393 932 392 q 897 394 911 394 q 861 388 882 394 q 834 382 840 382 q 828 388 828 382 q 847 408 828 393 q 757 429 833 429 q 689 326 742 393 q 721 331 706 326 q 738 342 736 335 q 748 350 740 350 q 801 324 756 350 q 846 283 846 299 q 826 245 846 268 q 782 211 806 222 q 736 163 765 190 q 842 138 804 161 q 879 75 879 114 q 867 52 879 57 q 781 47 856 47 q 667 72 707 47 q 626 124 626 96 q 645 166 626 135 q 682 194 664 197 q 697 213 686 199 q 714 232 707 226 q 636 279 663 260 q 575 250 608 258 q 492 242 542 242 q 429 252 442 242 q 412 292 417 263 q 407 336 407 321 q 485 441 407 381 q 672 503 563 501 q 719 621 719 564 q 713 632 719 632 q 701 631 707 632 q 604 527 644 561 q 536 493 564 493 q 504 524 504 493 q 550 640 504 604 q 546 650 546 647 q 603 681 546 661 q 630 719 619 697 q 640 756 640 742 q 631 780 640 769 q 606 790 621 790 q 579 783 592 790 q 562 773 567 775 q 557 774 557 771 q 586 804 557 778 m 606 399 q 530 367 554 379 q 498 347 506 356 q 490 321 490 338 q 500 308 490 308 q 545 331 510 308 q 606 399 581 353 z "},"岩":{"ha":1389,"x_min":215,"x_max":1104,"o":"m 942 775 q 988 872 988 840 q 984 926 988 904 q 981 958 981 949 q 986 967 981 967 q 1006 956 992 967 q 1057 908 1021 946 q 1099 860 1093 869 q 1104 839 1104 851 q 1088 803 1104 814 q 933 639 1035 768 q 1007 549 1007 599 q 975 503 1007 518 q 836 429 885 463 q 749 349 788 396 q 642 203 710 303 q 864 292 826 263 q 929 322 901 322 q 1029 285 968 322 q 1090 200 1090 249 q 1074 160 1090 176 q 996 21 996 81 q 1009 -23 996 4 q 1022 -77 1022 -50 q 994 -104 1022 -104 q 953 -97 983 -104 q 909 -81 924 -90 q 867 -72 894 -72 q 672 -131 804 -72 q 658 -149 667 -149 q 619 -123 650 -149 q 576 -62 588 -97 q 549 82 564 -28 q 378 -107 467 -31 q 260 -183 289 -183 q 228 -166 242 -183 q 215 -124 215 -149 q 230 -71 215 -100 q 255 -42 244 -42 q 271 -71 265 -42 q 514 208 389 29 q 511 242 511 229 q 519 256 511 256 q 544 243 526 256 q 665 417 617 335 q 526 358 597 396 q 486 350 511 350 q 397 373 440 350 q 354 422 354 396 q 365 464 354 447 q 388 481 376 481 q 406 472 400 481 q 432 463 411 463 q 483 472 453 463 q 617 524 514 481 q 766 592 721 568 q 835 638 811 615 q 893 708 860 661 q 859 711 878 711 q 803 700 840 711 q 778 670 789 678 q 747 663 767 663 q 703 664 726 663 q 501 563 526 578 q 457 549 475 549 q 413 587 426 549 q 399 661 399 625 q 424 711 399 697 q 472 792 472 738 q 469 819 472 807 q 465 840 465 832 q 476 858 465 858 q 497 844 488 858 q 571 749 538 786 q 688 788 669 757 q 706 858 706 819 q 686 917 706 897 q 656 971 667 936 q 644 1025 644 1006 q 653 1035 644 1035 q 735 1020 674 1035 q 813 993 796 1006 q 848 950 831 981 q 865 895 865 919 q 854 861 865 871 q 839 841 843 851 q 833 810 835 831 q 868 811 853 811 q 922 789 921 811 q 942 775 924 775 m 683 -7 q 810 33 758 0 q 892 117 861 67 q 922 183 922 167 q 912 192 922 192 q 867 175 901 192 q 710 129 772 129 q 646 136 683 129 q 683 -7 664 76 z "}}}
